<?xml version="1.0" encoding="UTF-8"?>
<!DOCTYPE svg PUBLIC "-//W3C//DTD SVG 1.1//EN" "http://www.w3.org/Graphics/SVG/1.1/DTD/svg11.dtd">
<!-- Creator: CorelDRAW X6 -->
<svg xmlns="http://www.w3.org/2000/svg"  width="172.72mm" height="100mm" version="1.1" style="shape-rendering:geometricPrecision; text-rendering:geometricPrecision; image-rendering:optimizeQuality;"
viewBox="0 3200 17272 10000"
 xmlns:xlink="http://www.w3.org/1999/xlink">
 <defs>
  <style type="text/css">
   <![CDATA[
    .fil2 {fill:#FEFEFE}
    .fil1 {fill:#FEFEFE}
    .fil0 {fill:#FEFEFE}
   ]]>
  </style>
 </defs>
 <g id="Layer_x0020_1">
  <metadata id="CorelCorpID_0Corel-Layer"/>
  <g id="_695917808">
   <!--<g>-->
    <!--<polygon class="fil0" points="0,17272 17272,17272 17272,0 0,0 "/>-->
    <g>
     <path class="fil1" d="M15324 9574c-135,0 -263,-23 -386,-69 -123,-46 -237,-116 -341,-211l184 -219c85,73 170,129 257,168 86,39 184,59 294,59 95,0 170,-20 225,-60 56,-40 83,-93 83,-159l0 -5c0,-32 -5,-59 -16,-83 -11,-24 -31,-47 -60,-69 -29,-22 -69,-42 -120,-60 -51,-18 -117,-37 -198,-55 -93,-22 -176,-46 -249,-74 -72,-27 -133,-61 -182,-100 -49,-39 -87,-87 -113,-143 -26,-56 -39,-125 -39,-204l0 -5c0,-75 15,-143 44,-206 30,-62 71,-115 123,-159 52,-44 114,-78 187,-103 73,-25 152,-37 239,-37 128,0 243,19 345,56 102,37 198,92 288,163l-164 232c-80,-58 -159,-103 -237,-133 -78,-31 -157,-46 -237,-46 -90,0 -159,20 -209,60 -50,40 -75,89 -75,147l0 5c0,33 6,63 17,88 12,26 33,49 64,70 31,21 74,40 127,59 54,18 123,37 206,57 91,23 173,49 243,77 71,28 130,63 176,103 47,41 82,88 106,142 24,54 36,117 36,188l0 5c0,81 -15,154 -46,219 -31,65 -73,120 -127,164 -54,45 -120,79 -196,102 -76,23 -160,35 -252,35zm-2312 -1769l0 0 688 0c101,0 193,14 275,41 82,27 152,67 209,118 57,52 101,113 132,184 31,71 46,151 46,239l0 5c0,98 -18,184 -55,258 -37,74 -87,136 -150,186 -64,50 -137,88 -222,113 -85,26 -176,39 -272,39l-347 0 0 561 -304 0 0 -1744zm662 907l0 0c117,0 209,-29 276,-88 68,-58 101,-133 101,-225l0 -5c0,-103 -34,-181 -103,-234 -68,-53 -160,-79 -275,-79l-358 0 0 630 358 0zm-1982 867l0 0c-135,0 -257,-24 -369,-71 -111,-47 -207,-112 -287,-193 -80,-81 -142,-176 -187,-285 -45,-109 -67,-225 -67,-348l0 -5c0,-123 22,-239 67,-348 45,-109 108,-204 189,-287 81,-82 178,-147 289,-196 111,-48 234,-72 369,-72 135,0 257,24 369,71 111,47 207,112 287,193 80,81 142,176 187,285 45,109 67,225 67,348l0 5c0,123 -22,239 -67,348 -45,109 -108,204 -189,287 -81,82 -178,147 -289,196 -111,48 -234,72 -369,72zm5 -282l0 0c86,0 165,-16 237,-49 72,-32 133,-76 185,-132 51,-56 91,-121 120,-196 29,-75 44,-154 44,-239l0 -5c0,-85 -15,-165 -44,-240 -29,-76 -69,-141 -121,-197 -52,-56 -115,-100 -187,-133 -73,-33 -152,-50 -238,-50 -86,0 -165,16 -237,49 -72,32 -133,76 -185,132 -51,56 -91,121 -120,196 -29,75 -44,154 -44,239l0 5c0,85 15,165 44,240 29,76 69,141 121,197 52,56 115,100 187,133 73,33 152,50 238,50zm-2088 -439l0 0 -725 -1054 239 0 587 872 592 -872 229 0 -725 1051 0 693 -197 0 0 -690zm-2250 -1054l0 0 1261 0 0 177 -1064 0 0 600 952 0 0 177 -952 0 0 613 1076 0 0 177 -1273 0 0 -1744zm-1826 0l0 0 197 0 0 1041 1002 -1041 254 0 -747 762 780 982 -247 0 -670 -845 -371 376 0 468 -197 0 0 -1744z"/>
     <path class="fil2" d="M1681 9511c-202,-293 -309,-639 -309,-995 0,-970 787,-1757 1757,-1757 970,0 1757,787 1757,1757 0,875 -646,1620 -1514,1740 -29,4 -50,5 -79,-2 -165,-37 -286,-180 -297,-349 0,-2 0,-4 0,-6l0 -22 0 -166 0 -147c-201,-45 -401,-214 -590,-506 -10,-16 -13,-34 -9,-52 3,-11 8,-21 15,-29 -13,-21 -26,-43 -38,-65 -53,-93 -103,-189 -143,-288 -33,-82 -60,-167 -76,-254 -24,-137 -19,-279 52,-402 80,-139 223,-217 372,-263 16,-68 77,-118 148,-118 84,0 152,68 152,152 0,84 -68,152 -152,152 -45,0 -87,-20 -116,-53 -111,35 -226,94 -286,198 -8,13 -14,27 -20,41 -92,230 72,567 186,766 12,21 25,42 38,63 28,-8 58,3 75,28 103,158 295,408 504,408 209,0 400,-250 504,-408 16,-25 47,-36 75,-28 13,-21 25,-42 38,-63 62,-107 119,-220 159,-337 45,-131 80,-295 27,-428 -6,-14 -12,-28 -20,-41 -60,-104 -175,-163 -286,-198 -29,34 -71,53 -116,53 -84,0 -152,-68 -152,-152 0,-84 68,-152 152,-152 71,0 133,50 148,118 149,45 292,124 372,263 71,123 76,265 52,402 -15,87 -43,172 -76,254 -40,99 -89,195 -143,288 -13,22 -25,43 -38,65 7,8 12,18 15,29 4,18 1,36 -9,52 -189,292 -389,461 -590,506l0 147 0 107 0 59 0 6c3,37 18,72 44,99 30,31 74,48 117,47 9,-1 18,-3 27,-5 728,-133 1257,-770 1257,-1509 0,-847 -687,-1534 -1534,-1534 -847,0 -1534,687 -1534,1534 0,336 109,660 312,928 21,28 26,62 12,94l-275 671 650 -219c39,-13 78,-28 117,-42 0,0 1,0 1,0 31,-12 63,-7 90,12 26,19 41,49 40,81 0,12 -1,24 -1,37 0,2 0,4 0,6 0,43 -28,80 -69,92 -3,1 -6,2 -10,3l-977 329c-45,15 -92,3 -125,-31 -32,-34 -41,-83 -23,-127l344 -838z"/>
    <!--</g>-->
   </g>
  </g>
 </g>
</svg>
